<?xml version="1.0" encoding="UTF-8" standalone="no"?>
<!DOCTYPE svg PUBLIC "-//W3C//DTD SVG 1.1//EN" "http://www.w3.org/Graphics/SVG/1.1/DTD/svg11.dtd">
<svg width="100%" height="100%" viewBox="0 0 169 79" version="1.1" xmlns="http://www.w3.org/2000/svg" xmlns:xlink="http://www.w3.org/1999/xlink" xml:space="preserve" xmlns:serif="http://www.serif.com/" style="fill-rule:evenodd;clip-rule:evenodd;stroke-linejoin:round;stroke-miterlimit:1.41421;">
    <g transform="matrix(1,0,0,1,-21.9669,-60.889)">
        <g>
            <path d="M44,60.889L21.967,73.942L21.967,100L66.1,73.942L44,60.889Z" style="fill:rgb(48,231,157);fill-opacity:0.596078;"/>
            <path d="M21.967,100L21.967,126.98L44,138.957L66.1,124.947L21.967,100" style="fill:rgb(48,231,231);fill-opacity:0.596078;"/>
            <path d="M66.1,124.947L88.067,111.77L88.067,86.06L66.1,73.942L66.1,124.947Z" style="fill:rgb(48,197,231);fill-opacity:0.596078;"/>
            <path d="M66.1,73.942L44.032,86.957L44,112.475L66.1,124.947L66.1,73.942Z" style="fill:rgb(47,208,214);fill-opacity:0.835294;"/>
            <path d="M44,87.013L21.967,100L44.033,112.497L44,87.013Z" style="fill:rgb(47,231,183);fill-opacity:0.835294;"/>
            <g transform="matrix(-1,1.22465e-16,-1.22465e-16,-1,88.067,199.51)">
                <path d="M44,87.013L21.967,100L44.033,112.497L44,87.013Z" style="fill:rgb(47,231,183);fill-opacity:0.607843;"/>
            </g>
        </g>
        <g transform="matrix(1,0,0,1,-25.8207,17.502)">
            <path d="M121.324,79.311L116.831,79.311C116.662,79.311 116.54,79.273 116.464,79.197C116.389,79.122 116.351,79 116.351,78.831L116.351,70.191C116.351,70.022 116.389,69.9 116.464,69.824C116.54,69.749 116.662,69.711 116.831,69.711L121.324,69.711C122.435,69.711 123.26,69.933 123.797,70.377C124.335,70.822 124.604,71.506 124.604,72.431L124.604,76.591C124.604,77.515 124.335,78.2 123.797,78.644C123.26,79.089 122.435,79.311 121.324,79.311ZM119.377,72.257L119.377,76.791L120.964,76.791C121.177,76.791 121.335,76.737 121.437,76.631C121.54,76.524 121.591,76.36 121.591,76.137L121.591,72.897C121.591,72.675 121.54,72.513 121.437,72.411C121.335,72.309 121.177,72.257 120.964,72.257L119.377,72.257Z" style="fill-rule:nonzero;"/>
            <path d="M126.564,79.311C126.395,79.311 126.273,79.273 126.197,79.197C126.122,79.122 126.084,79 126.084,78.831L126.084,77.244C126.084,77.075 126.122,76.953 126.197,76.877C126.273,76.802 126.395,76.764 126.564,76.764L127.884,76.764L127.884,72.284L126.564,72.284C126.395,72.284 126.273,72.246 126.197,72.171C126.122,72.095 126.084,71.973 126.084,71.804L126.084,70.191C126.084,70.022 126.122,69.9 126.197,69.824C126.273,69.749 126.395,69.711 126.564,69.711L132.244,69.711C132.413,69.711 132.535,69.749 132.611,69.824C132.686,69.9 132.724,70.022 132.724,70.191L132.724,71.804C132.724,71.973 132.686,72.095 132.611,72.171C132.535,72.246 132.413,72.284 132.244,72.284L130.951,72.284L130.951,76.764L132.244,76.764C132.413,76.764 132.535,76.802 132.611,76.877C132.686,76.953 132.724,77.075 132.724,77.244L132.724,78.831C132.724,79 132.686,79.122 132.611,79.197C132.535,79.273 132.413,79.311 132.244,79.311L126.564,79.311Z" style="fill-rule:nonzero;"/>
            <path d="M136.831,79.311L134.844,79.311C134.675,79.311 134.553,79.273 134.477,79.197C134.402,79.122 134.364,79 134.364,78.831L134.364,70.191C134.364,70.022 134.402,69.9 134.477,69.824C134.553,69.749 134.675,69.711 134.844,69.711L136.991,69.711C137.133,69.711 137.251,69.742 137.344,69.804C137.437,69.866 137.524,69.969 137.604,70.111L138.804,72.284C138.849,72.364 138.886,72.422 138.917,72.457C138.949,72.493 138.991,72.511 139.044,72.511L139.164,72.511C139.217,72.511 139.26,72.493 139.291,72.457C139.322,72.422 139.36,72.364 139.404,72.284L140.591,70.111C140.671,69.969 140.757,69.866 140.851,69.804C140.944,69.742 141.062,69.711 141.204,69.711L143.364,69.711C143.533,69.711 143.655,69.749 143.731,69.824C143.806,69.9 143.844,70.022 143.844,70.191L143.844,78.831C143.844,79 143.806,79.122 143.731,79.197C143.655,79.273 143.533,79.311 143.364,79.311L141.311,79.311C141.142,79.311 141.02,79.273 140.944,79.197C140.869,79.122 140.831,79 140.831,78.831L140.831,74.137L140.044,75.591C139.964,75.742 139.869,75.851 139.757,75.917C139.646,75.984 139.506,76.017 139.337,76.017L138.804,76.017C138.635,76.017 138.495,75.984 138.384,75.917C138.273,75.851 138.177,75.742 138.097,75.591L137.311,74.137L137.311,78.831C137.311,79 137.273,79.122 137.197,79.197C137.122,79.273 137,79.311 136.831,79.311Z" style="fill-rule:nonzero;"/>
            <path d="M152.351,79.311L146.164,79.311C145.995,79.311 145.873,79.273 145.797,79.197C145.722,79.122 145.684,79 145.684,78.831L145.684,70.191C145.684,70.022 145.722,69.9 145.797,69.824C145.873,69.749 145.995,69.711 146.164,69.711L152.351,69.711C152.52,69.711 152.642,69.749 152.717,69.824C152.793,69.9 152.831,70.022 152.831,70.191L152.831,71.751C152.831,71.92 152.793,72.042 152.717,72.117C152.642,72.193 152.52,72.231 152.351,72.231L148.671,72.231L148.671,73.257L151.271,73.257C151.44,73.257 151.562,73.295 151.637,73.371C151.713,73.446 151.751,73.569 151.751,73.737L151.751,75.164C151.751,75.333 151.713,75.455 151.637,75.531C151.562,75.606 151.44,75.644 151.271,75.644L148.671,75.644L148.671,76.791L152.351,76.791C152.52,76.791 152.642,76.829 152.717,76.904C152.793,76.98 152.831,77.102 152.831,77.271L152.831,78.831C152.831,79 152.793,79.122 152.717,79.197C152.642,79.273 152.52,79.311 152.351,79.311Z" style="fill-rule:nonzero;"/>
            <path d="M156.884,79.311L154.884,79.311C154.715,79.311 154.593,79.273 154.517,79.197C154.442,79.122 154.404,79 154.404,78.831L154.404,70.191C154.404,70.022 154.442,69.9 154.517,69.824C154.593,69.749 154.715,69.711 154.884,69.711L156.271,69.711C156.44,69.711 156.584,69.737 156.704,69.791C156.824,69.844 156.942,69.937 157.057,70.071L159.644,73.031L159.644,70.191C159.644,70.022 159.682,69.9 159.757,69.824C159.833,69.749 159.955,69.711 160.124,69.711L162.124,69.711C162.293,69.711 162.415,69.749 162.491,69.824C162.566,69.9 162.604,70.022 162.604,70.191L162.604,78.831C162.604,79 162.566,79.122 162.491,79.197C162.415,79.273 162.293,79.311 162.124,79.311L160.124,79.311C159.955,79.311 159.833,79.273 159.757,79.197C159.682,79.122 159.644,79 159.644,78.831L159.644,77.191L157.364,74.431L157.364,78.831C157.364,79 157.326,79.122 157.251,79.197C157.175,79.273 157.053,79.311 156.884,79.311Z" style="fill-rule:nonzero;"/>
            <path d="M168.897,79.311L164.684,79.311C164.515,79.311 164.393,79.273 164.317,79.197C164.242,79.122 164.204,79 164.204,78.831L164.204,77.271C164.204,77.102 164.242,76.98 164.317,76.904C164.393,76.829 164.515,76.791 164.684,76.791L168.271,76.791C168.386,76.791 168.473,76.753 168.531,76.677C168.589,76.602 168.617,76.511 168.617,76.404C168.617,76.253 168.589,76.142 168.531,76.071C168.473,76 168.386,75.96 168.271,75.951L166.271,75.671C165.649,75.582 165.149,75.377 164.771,75.057C164.393,74.737 164.204,74.204 164.204,73.457L164.204,72.057C164.204,71.302 164.449,70.722 164.937,70.317C165.426,69.913 166.102,69.711 166.964,69.711L170.697,69.711C170.866,69.711 170.989,69.749 171.064,69.824C171.14,69.9 171.177,70.022 171.177,70.191L171.177,71.777C171.177,71.946 171.14,72.069 171.064,72.144C170.989,72.22 170.866,72.257 170.697,72.257L167.591,72.257C167.475,72.257 167.386,72.295 167.324,72.371C167.262,72.446 167.231,72.542 167.231,72.657C167.231,72.773 167.262,72.871 167.324,72.951C167.386,73.031 167.475,73.075 167.591,73.084L169.577,73.351C170.2,73.44 170.702,73.644 171.084,73.964C171.466,74.284 171.657,74.817 171.657,75.564L171.657,76.964C171.657,77.72 171.411,78.3 170.917,78.704C170.424,79.109 169.751,79.311 168.897,79.311Z" style="fill-rule:nonzero;"/>
            <path d="M173.377,79.311C173.209,79.311 173.086,79.273 173.011,79.197C172.935,79.122 172.897,79 172.897,78.831L172.897,77.244C172.897,77.075 172.935,76.953 173.011,76.877C173.086,76.802 173.209,76.764 173.377,76.764L174.697,76.764L174.697,72.284L173.377,72.284C173.209,72.284 173.086,72.246 173.011,72.171C172.935,72.095 172.897,71.973 172.897,71.804L172.897,70.191C172.897,70.022 172.935,69.9 173.011,69.824C173.086,69.749 173.209,69.711 173.377,69.711L179.057,69.711C179.226,69.711 179.349,69.749 179.424,69.824C179.5,69.9 179.537,70.022 179.537,70.191L179.537,71.804C179.537,71.973 179.5,72.095 179.424,72.171C179.349,72.246 179.226,72.284 179.057,72.284L177.764,72.284L177.764,76.764L179.057,76.764C179.226,76.764 179.349,76.802 179.424,76.877C179.5,76.953 179.537,77.075 179.537,77.244L179.537,78.831C179.537,79 179.5,79.122 179.424,79.197C179.349,79.273 179.226,79.311 179.057,79.311L173.377,79.311Z" style="fill-rule:nonzero;"/>
            <path d="M189.311,76.791C189.311,77.2 189.251,77.571 189.131,77.904C189.011,78.237 188.797,78.522 188.491,78.757C188.184,78.993 187.762,79.177 187.224,79.311C186.686,79.444 186.004,79.511 185.177,79.511C184.351,79.511 183.666,79.444 183.124,79.311C182.582,79.177 182.157,78.993 181.851,78.757C181.544,78.522 181.331,78.237 181.211,77.904C181.091,77.571 181.031,77.2 181.031,76.791L181.031,72.244C181.031,71.835 181.091,71.464 181.211,71.131C181.331,70.797 181.544,70.511 181.851,70.271C182.157,70.031 182.582,69.844 183.124,69.711C183.666,69.577 184.351,69.511 185.177,69.511C186.004,69.511 186.686,69.577 187.224,69.711C187.762,69.844 188.184,70.031 188.491,70.271C188.797,70.511 189.011,70.797 189.131,71.131C189.251,71.464 189.311,71.835 189.311,72.244L189.311,76.791ZM184.057,76.311C184.057,76.489 184.124,76.637 184.257,76.757C184.391,76.877 184.697,76.937 185.177,76.937C185.657,76.937 185.964,76.877 186.097,76.757C186.231,76.637 186.297,76.489 186.297,76.311L186.297,72.724C186.297,72.555 186.231,72.411 186.097,72.291C185.964,72.171 185.657,72.111 185.177,72.111C184.697,72.111 184.391,72.171 184.257,72.291C184.124,72.411 184.057,72.555 184.057,72.724L184.057,76.311Z" style="fill-rule:nonzero;"/>
            <path d="M193.484,79.311L191.484,79.311C191.315,79.311 191.193,79.273 191.117,79.197C191.042,79.122 191.004,79 191.004,78.831L191.004,70.191C191.004,70.022 191.042,69.9 191.117,69.824C191.193,69.749 191.315,69.711 191.484,69.711L192.871,69.711C193.04,69.711 193.184,69.737 193.304,69.791C193.424,69.844 193.542,69.937 193.657,70.071L196.244,73.031L196.244,70.191C196.244,70.022 196.282,69.9 196.357,69.824C196.433,69.749 196.555,69.711 196.724,69.711L198.724,69.711C198.893,69.711 199.015,69.749 199.091,69.824C199.166,69.9 199.204,70.022 199.204,70.191L199.204,78.831C199.204,79 199.166,79.122 199.091,79.197C199.015,79.273 198.893,79.311 198.724,79.311L196.724,79.311C196.555,79.311 196.433,79.273 196.357,79.197C196.282,79.122 196.244,79 196.244,78.831L196.244,77.191L193.964,74.431L193.964,78.831C193.964,79 193.926,79.122 193.851,79.197C193.775,79.273 193.653,79.311 193.484,79.311Z" style="fill-rule:nonzero;"/>
            <path d="M205.497,79.311L201.284,79.311C201.115,79.311 200.993,79.273 200.917,79.197C200.842,79.122 200.804,79 200.804,78.831L200.804,77.271C200.804,77.102 200.842,76.98 200.917,76.904C200.993,76.829 201.115,76.791 201.284,76.791L204.871,76.791C204.986,76.791 205.073,76.753 205.131,76.677C205.189,76.602 205.217,76.511 205.217,76.404C205.217,76.253 205.189,76.142 205.131,76.071C205.073,76 204.986,75.96 204.871,75.951L202.871,75.671C202.249,75.582 201.749,75.377 201.371,75.057C200.993,74.737 200.804,74.204 200.804,73.457L200.804,72.057C200.804,71.302 201.049,70.722 201.537,70.317C202.026,69.913 202.702,69.711 203.564,69.711L207.297,69.711C207.466,69.711 207.589,69.749 207.664,69.824C207.74,69.9 207.777,70.022 207.777,70.191L207.777,71.777C207.777,71.946 207.74,72.069 207.664,72.144C207.589,72.22 207.466,72.257 207.297,72.257L204.191,72.257C204.075,72.257 203.986,72.295 203.924,72.371C203.862,72.446 203.831,72.542 203.831,72.657C203.831,72.773 203.862,72.871 203.924,72.951C203.986,73.031 204.075,73.075 204.191,73.084L206.177,73.351C206.8,73.44 207.302,73.644 207.684,73.964C208.066,74.284 208.257,74.817 208.257,75.564L208.257,76.964C208.257,77.72 208.011,78.3 207.517,78.704C207.024,79.109 206.351,79.311 205.497,79.311Z" style="fill-rule:nonzero;"/>
        </g>
        <g transform="matrix(1,0,0,1,-80.099,30.4892)">
            <path d="M124.484,76.791C124.484,77.2 124.424,77.571 124.304,77.904C124.184,78.237 123.971,78.522 123.664,78.757C123.357,78.993 122.935,79.177 122.397,79.311C121.86,79.444 121.177,79.511 120.351,79.511C119.524,79.511 118.84,79.444 118.297,79.311C117.755,79.177 117.331,78.993 117.024,78.757C116.717,78.522 116.504,78.237 116.384,77.904C116.264,77.571 116.204,77.2 116.204,76.791L116.204,72.244C116.204,71.835 116.264,71.464 116.384,71.131C116.504,70.797 116.717,70.511 117.024,70.271C117.331,70.031 117.755,69.844 118.297,69.711C118.84,69.577 119.524,69.511 120.351,69.511C121.177,69.511 121.86,69.577 122.397,69.711C122.935,69.844 123.357,70.031 123.664,70.271C123.971,70.511 124.184,70.797 124.304,71.131C124.424,71.464 124.484,71.835 124.484,72.244L124.484,76.791ZM119.231,76.311C119.231,76.489 119.297,76.637 119.431,76.757C119.564,76.877 119.871,76.937 120.351,76.937C120.831,76.937 121.137,76.877 121.271,76.757C121.404,76.637 121.471,76.489 121.471,76.311L121.471,72.724C121.471,72.555 121.404,72.411 121.271,72.291C121.137,72.171 120.831,72.111 120.351,72.111C119.871,72.111 119.564,72.171 119.431,72.291C119.297,72.411 119.231,72.555 119.231,72.724L119.231,76.311Z" style="fill-rule:nonzero;"/>
            <path d="M128.724,79.311L126.657,79.311C126.489,79.311 126.366,79.273 126.291,79.197C126.215,79.122 126.177,79 126.177,78.831L126.177,70.191C126.177,70.022 126.215,69.9 126.291,69.824C126.366,69.749 126.489,69.711 126.657,69.711L132.604,69.711C132.773,69.711 132.895,69.749 132.971,69.824C133.046,69.9 133.084,70.022 133.084,70.191L133.084,71.777C133.084,71.946 133.046,72.069 132.971,72.144C132.895,72.22 132.773,72.257 132.604,72.257L129.204,72.257L129.204,73.644L131.524,73.644C131.693,73.644 131.815,73.682 131.891,73.757C131.966,73.833 132.004,73.955 132.004,74.124L132.004,75.724C132.004,75.893 131.966,76.015 131.891,76.091C131.815,76.166 131.693,76.204 131.524,76.204L129.204,76.204L129.204,78.831C129.204,79 129.166,79.122 129.091,79.197C129.015,79.273 128.893,79.311 128.724,79.311Z" style="fill-rule:nonzero;"/>
            <path d="M142.884,79.311L137.764,79.311C137.595,79.311 137.473,79.273 137.397,79.197C137.322,79.122 137.284,79 137.284,78.831L137.284,70.191C137.284,70.022 137.322,69.9 137.397,69.824C137.473,69.749 137.595,69.711 137.764,69.711L142.017,69.711C142.889,69.711 143.533,69.877 143.951,70.211C144.369,70.544 144.577,71.057 144.577,71.751L144.577,72.391C144.577,72.764 144.513,73.069 144.384,73.304C144.255,73.54 144.057,73.715 143.791,73.831C144.36,73.884 144.782,74.08 145.057,74.417C145.333,74.755 145.471,75.249 145.471,75.897L145.471,77.124C145.471,77.871 145.26,78.422 144.837,78.777C144.415,79.133 143.764,79.311 142.884,79.311ZM140.284,71.977L140.284,73.417L141.417,73.417C141.586,73.417 141.713,73.373 141.797,73.284C141.882,73.195 141.924,73.062 141.924,72.884L141.924,72.511C141.924,72.333 141.882,72.2 141.797,72.111C141.713,72.022 141.586,71.977 141.417,71.977L140.284,71.977ZM140.284,75.471L140.284,77.044L142.017,77.044C142.186,77.044 142.313,77 142.397,76.911C142.482,76.822 142.524,76.689 142.524,76.511L142.524,75.991C142.524,75.813 142.482,75.682 142.397,75.597C142.313,75.513 142.186,75.471 142.017,75.471L140.284,75.471Z" style="fill-rule:nonzero;"/>
            <path d="M153.617,79.311L147.431,79.311C147.262,79.311 147.14,79.273 147.064,79.197C146.989,79.122 146.951,79 146.951,78.831L146.951,70.191C146.951,70.022 146.989,69.9 147.064,69.824C147.14,69.749 147.262,69.711 147.431,69.711L153.617,69.711C153.786,69.711 153.909,69.749 153.984,69.824C154.06,69.9 154.097,70.022 154.097,70.191L154.097,71.751C154.097,71.92 154.06,72.042 153.984,72.117C153.909,72.193 153.786,72.231 153.617,72.231L149.937,72.231L149.937,73.257L152.537,73.257C152.706,73.257 152.829,73.295 152.904,73.371C152.98,73.446 153.017,73.569 153.017,73.737L153.017,75.164C153.017,75.333 152.98,75.455 152.904,75.531C152.829,75.606 152.706,75.644 152.537,75.644L149.937,75.644L149.937,76.791L153.617,76.791C153.786,76.791 153.909,76.829 153.984,76.904C154.06,76.98 154.097,77.102 154.097,77.271L154.097,78.831C154.097,79 154.06,79.122 153.984,79.197C153.909,79.273 153.786,79.311 153.617,79.311Z" style="fill-rule:nonzero;"/>
            <path d="M158.217,79.311L156.151,79.311C155.982,79.311 155.86,79.273 155.784,79.197C155.709,79.122 155.671,79 155.671,78.831L155.671,70.191C155.671,70.022 155.709,69.9 155.784,69.824C155.86,69.749 155.982,69.711 156.151,69.711L158.217,69.711C158.386,69.711 158.509,69.749 158.584,69.824C158.66,69.9 158.697,70.022 158.697,70.191L158.697,73.084L160.924,73.084L160.924,70.191C160.924,70.022 160.962,69.9 161.037,69.824C161.113,69.749 161.235,69.711 161.404,69.711L163.471,69.711C163.64,69.711 163.762,69.749 163.837,69.824C163.913,69.9 163.951,70.022 163.951,70.191L163.951,78.831C163.951,79 163.913,79.122 163.837,79.197C163.762,79.273 163.64,79.311 163.471,79.311L161.404,79.311C161.235,79.311 161.113,79.273 161.037,79.197C160.962,79.122 160.924,79 160.924,78.831L160.924,75.871L158.697,75.871L158.697,78.831C158.697,79 158.66,79.122 158.584,79.197C158.509,79.273 158.386,79.311 158.217,79.311Z" style="fill-rule:nonzero;"/>
            <path d="M169.271,72.511L168.644,74.537L170.737,74.537L170.111,72.511C170.075,72.431 170.037,72.373 169.997,72.337C169.957,72.302 169.911,72.284 169.857,72.284L169.524,72.284C169.471,72.284 169.424,72.302 169.384,72.337C169.344,72.373 169.306,72.431 169.271,72.511ZM168.511,78.831C168.511,79 168.473,79.122 168.397,79.197C168.322,79.273 168.2,79.311 168.031,79.311L166.071,79.311C165.902,79.311 165.78,79.273 165.704,79.197C165.629,79.122 165.591,79 165.591,78.831L165.591,75.311C165.591,75.044 165.633,74.737 165.717,74.391C165.802,74.044 165.933,73.64 166.111,73.177L167.271,70.151C167.324,70 167.406,69.889 167.517,69.817C167.629,69.746 167.773,69.711 167.951,69.711L171.537,69.711C171.706,69.711 171.846,69.746 171.957,69.817C172.069,69.889 172.151,70 172.204,70.151L173.364,73.177C173.542,73.64 173.673,74.044 173.757,74.391C173.842,74.737 173.884,75.044 173.884,75.311L173.884,78.831C173.884,79 173.846,79.122 173.771,79.197C173.695,79.273 173.573,79.311 173.404,79.311L171.391,79.311C171.213,79.311 171.082,79.273 170.997,79.197C170.913,79.122 170.871,79 170.871,78.831L170.871,76.964L168.511,76.964L168.511,78.831Z" style="fill-rule:nonzero;"/>
            <path d="M181.071,79.311L177.604,79.311C177.435,79.311 177.295,79.28 177.184,79.217C177.073,79.155 176.986,79.04 176.924,78.871L175.617,75.604C175.537,75.409 175.471,75.237 175.417,75.091C175.364,74.944 175.32,74.804 175.284,74.671C175.249,74.537 175.224,74.397 175.211,74.251C175.197,74.104 175.191,73.924 175.191,73.711L175.191,70.191C175.191,70.022 175.229,69.9 175.304,69.824C175.38,69.749 175.502,69.711 175.671,69.711L177.791,69.711C177.96,69.711 178.089,69.749 178.177,69.824C178.266,69.9 178.311,70.022 178.311,70.191L178.311,73.871C178.311,73.96 178.32,74.049 178.337,74.137C178.355,74.226 178.382,74.32 178.417,74.417L179.044,76.284C179.071,76.373 179.102,76.433 179.137,76.464C179.173,76.495 179.226,76.511 179.297,76.511L179.444,76.511C179.515,76.511 179.569,76.495 179.604,76.464C179.64,76.433 179.671,76.373 179.697,76.284L180.324,74.404C180.36,74.306 180.386,74.213 180.404,74.124C180.422,74.035 180.431,73.946 180.431,73.857L180.431,70.191C180.431,70.022 180.469,69.9 180.544,69.824C180.62,69.749 180.742,69.711 180.911,69.711L183.004,69.711C183.173,69.711 183.295,69.749 183.371,69.824C183.446,69.9 183.484,70.022 183.484,70.191L183.484,73.711C183.484,73.924 183.477,74.104 183.464,74.251C183.451,74.397 183.426,74.537 183.391,74.671C183.355,74.804 183.311,74.944 183.257,75.091C183.204,75.237 183.137,75.409 183.057,75.604L181.751,78.871C181.689,79.04 181.602,79.155 181.491,79.217C181.38,79.28 181.24,79.311 181.071,79.311Z" style="fill-rule:nonzero;"/>
            <path d="M185.391,79.311C185.222,79.311 185.1,79.273 185.024,79.197C184.949,79.122 184.911,79 184.911,78.831L184.911,77.244C184.911,77.075 184.949,76.953 185.024,76.877C185.1,76.802 185.222,76.764 185.391,76.764L186.711,76.764L186.711,72.284L185.391,72.284C185.222,72.284 185.1,72.246 185.024,72.171C184.949,72.095 184.911,71.973 184.911,71.804L184.911,70.191C184.911,70.022 184.949,69.9 185.024,69.824C185.1,69.749 185.222,69.711 185.391,69.711L191.071,69.711C191.24,69.711 191.362,69.749 191.437,69.824C191.513,69.9 191.551,70.022 191.551,70.191L191.551,71.804C191.551,71.973 191.513,72.095 191.437,72.171C191.362,72.246 191.24,72.284 191.071,72.284L189.777,72.284L189.777,76.764L191.071,76.764C191.24,76.764 191.362,76.802 191.437,76.877C191.513,76.953 191.551,77.075 191.551,77.244L191.551,78.831C191.551,79 191.513,79.122 191.437,79.197C191.362,79.273 191.24,79.311 191.071,79.311L185.391,79.311Z" style="fill-rule:nonzero;"/>
            <path d="M201.324,76.791C201.324,77.2 201.264,77.571 201.144,77.904C201.024,78.237 200.811,78.522 200.504,78.757C200.197,78.993 199.775,79.177 199.237,79.311C198.7,79.444 198.017,79.511 197.191,79.511C196.364,79.511 195.68,79.444 195.137,79.311C194.595,79.177 194.171,78.993 193.864,78.757C193.557,78.522 193.344,78.237 193.224,77.904C193.104,77.571 193.044,77.2 193.044,76.791L193.044,72.244C193.044,71.835 193.104,71.464 193.224,71.131C193.344,70.797 193.557,70.511 193.864,70.271C194.171,70.031 194.595,69.844 195.137,69.711C195.68,69.577 196.364,69.511 197.191,69.511C198.017,69.511 198.7,69.577 199.237,69.711C199.775,69.844 200.197,70.031 200.504,70.271C200.811,70.511 201.024,70.797 201.144,71.131C201.264,71.464 201.324,71.835 201.324,72.244L201.324,76.791ZM196.071,76.311C196.071,76.489 196.137,76.637 196.271,76.757C196.404,76.877 196.711,76.937 197.191,76.937C197.671,76.937 197.977,76.877 198.111,76.757C198.244,76.637 198.311,76.489 198.311,76.311L198.311,72.724C198.311,72.555 198.244,72.411 198.111,72.291C197.977,72.171 197.671,72.111 197.191,72.111C196.711,72.111 196.404,72.171 196.271,72.291C196.137,72.411 196.071,72.555 196.071,72.724L196.071,76.311Z" style="fill-rule:nonzero;"/>
            <path d="M206.031,72.111L206.031,73.817L207.031,73.817C207.262,73.817 207.417,73.757 207.497,73.637C207.577,73.517 207.617,73.369 207.617,73.191L207.617,72.737C207.617,72.56 207.577,72.411 207.497,72.291C207.417,72.171 207.262,72.111 207.031,72.111L206.031,72.111ZM205.551,79.311L203.497,79.311C203.329,79.311 203.206,79.273 203.131,79.197C203.055,79.122 203.017,79 203.017,78.831L203.017,70.191C203.017,70.022 203.055,69.9 203.131,69.824C203.206,69.749 203.329,69.711 203.497,69.711L207.937,69.711C208.933,69.711 209.62,69.917 209.997,70.331C210.375,70.744 210.564,71.28 210.564,71.937L210.564,72.551C210.564,72.924 210.509,73.242 210.397,73.504C210.286,73.766 210.093,73.955 209.817,74.071C210.297,74.124 210.686,74.32 210.984,74.657C211.282,74.995 211.431,75.444 211.431,76.004L211.431,78.831C211.431,79 211.393,79.122 211.317,79.197C211.242,79.273 211.12,79.311 210.951,79.311L208.884,79.311C208.715,79.311 208.593,79.273 208.517,79.197C208.442,79.122 208.404,79 208.404,78.831L208.404,76.791C208.404,76.595 208.366,76.451 208.291,76.357C208.215,76.264 208.084,76.217 207.897,76.217L206.031,76.217L206.031,78.831C206.031,79 205.993,79.122 205.917,79.197C205.842,79.273 205.72,79.311 205.551,79.311Z" style="fill-rule:nonzero;"/>
            <path d="M222.311,79.311L219.057,79.311C217.946,79.311 217.122,79.089 216.584,78.644C216.046,78.2 215.777,77.515 215.777,76.591L215.777,72.444C215.777,71.52 216.046,70.833 216.584,70.384C217.122,69.935 217.946,69.711 219.057,69.711L222.311,69.711C222.48,69.711 222.602,69.749 222.677,69.824C222.753,69.9 222.791,70.022 222.791,70.191L222.791,71.804C222.791,71.973 222.753,72.095 222.677,72.171C222.602,72.246 222.48,72.284 222.311,72.284L219.631,72.284C219.355,72.284 219.151,72.34 219.017,72.451C218.884,72.562 218.817,72.729 218.817,72.951L218.817,76.124C218.817,76.346 218.884,76.509 219.017,76.611C219.151,76.713 219.355,76.764 219.631,76.764L222.311,76.764C222.48,76.764 222.602,76.802 222.677,76.877C222.753,76.953 222.791,77.075 222.791,77.244L222.791,78.831C222.791,79 222.753,79.122 222.677,79.197C222.602,79.273 222.48,79.311 222.311,79.311Z" style="fill-rule:nonzero;"/>
            <path d="M226.844,79.311L224.777,79.311C224.609,79.311 224.486,79.273 224.411,79.197C224.335,79.122 224.297,79 224.297,78.831L224.297,70.191C224.297,70.022 224.335,69.9 224.411,69.824C224.486,69.749 224.609,69.711 224.777,69.711L226.844,69.711C227.013,69.711 227.135,69.749 227.211,69.824C227.286,69.9 227.324,70.022 227.324,70.191L227.324,73.084L229.551,73.084L229.551,70.191C229.551,70.022 229.589,69.9 229.664,69.824C229.74,69.749 229.862,69.711 230.031,69.711L232.097,69.711C232.266,69.711 232.389,69.749 232.464,69.824C232.54,69.9 232.577,70.022 232.577,70.191L232.577,78.831C232.577,79 232.54,79.122 232.464,79.197C232.389,79.273 232.266,79.311 232.097,79.311L230.031,79.311C229.862,79.311 229.74,79.273 229.664,79.197C229.589,79.122 229.551,79 229.551,78.831L229.551,75.871L227.324,75.871L227.324,78.831C227.324,79 227.286,79.122 227.211,79.197C227.135,79.273 227.013,79.311 226.844,79.311Z" style="fill-rule:nonzero;"/>
            <path d="M237.897,72.511L237.271,74.537L239.364,74.537L238.737,72.511C238.702,72.431 238.664,72.373 238.624,72.337C238.584,72.302 238.537,72.284 238.484,72.284L238.151,72.284C238.097,72.284 238.051,72.302 238.011,72.337C237.971,72.373 237.933,72.431 237.897,72.511ZM237.137,78.831C237.137,79 237.1,79.122 237.024,79.197C236.949,79.273 236.826,79.311 236.657,79.311L234.697,79.311C234.529,79.311 234.406,79.273 234.331,79.197C234.255,79.122 234.217,79 234.217,78.831L234.217,75.311C234.217,75.044 234.26,74.737 234.344,74.391C234.429,74.044 234.56,73.64 234.737,73.177L235.897,70.151C235.951,70 236.033,69.889 236.144,69.817C236.255,69.746 236.4,69.711 236.577,69.711L240.164,69.711C240.333,69.711 240.473,69.746 240.584,69.817C240.695,69.889 240.777,70 240.831,70.151L241.991,73.177C242.169,73.64 242.3,74.044 242.384,74.391C242.469,74.737 242.511,75.044 242.511,75.311L242.511,78.831C242.511,79 242.473,79.122 242.397,79.197C242.322,79.273 242.2,79.311 242.031,79.311L240.017,79.311C239.84,79.311 239.709,79.273 239.624,79.197C239.54,79.122 239.497,79 239.497,78.831L239.497,76.964L237.137,76.964L237.137,78.831Z" style="fill-rule:nonzero;"/>
            <path d="M246.631,79.311L244.631,79.311C244.462,79.311 244.34,79.273 244.264,79.197C244.189,79.122 244.151,79 244.151,78.831L244.151,70.191C244.151,70.022 244.189,69.9 244.264,69.824C244.34,69.749 244.462,69.711 244.631,69.711L246.017,69.711C246.186,69.711 246.331,69.737 246.451,69.791C246.571,69.844 246.689,69.937 246.804,70.071L249.391,73.031L249.391,70.191C249.391,70.022 249.429,69.9 249.504,69.824C249.58,69.749 249.702,69.711 249.871,69.711L251.871,69.711C252.04,69.711 252.162,69.749 252.237,69.824C252.313,69.9 252.351,70.022 252.351,70.191L252.351,78.831C252.351,79 252.313,79.122 252.237,79.197C252.162,79.273 252.04,79.311 251.871,79.311L249.871,79.311C249.702,79.311 249.58,79.273 249.504,79.197C249.429,79.122 249.391,79 249.391,78.831L249.391,77.191L247.111,74.431L247.111,78.831C247.111,79 247.073,79.122 246.997,79.197C246.922,79.273 246.8,79.311 246.631,79.311Z" style="fill-rule:nonzero;"/>
            <path d="M261.524,79.311L257.324,79.311C256.213,79.311 255.389,79.089 254.851,78.644C254.313,78.2 254.044,77.515 254.044,76.591L254.044,72.431C254.044,71.506 254.313,70.822 254.851,70.377C255.389,69.933 256.213,69.711 257.324,69.711L260.657,69.711C260.826,69.711 260.949,69.749 261.024,69.824C261.1,69.9 261.137,70.022 261.137,70.191L261.137,71.804C261.137,71.973 261.1,72.095 261.024,72.171C260.949,72.246 260.826,72.284 260.657,72.284L257.884,72.284C257.609,72.284 257.404,72.34 257.271,72.451C257.137,72.562 257.071,72.729 257.071,72.951L257.071,76.137C257.071,76.36 257.122,76.524 257.224,76.631C257.326,76.737 257.48,76.791 257.684,76.791L258.977,76.791L258.977,74.711C258.977,74.542 259.015,74.42 259.091,74.344C259.166,74.269 259.289,74.231 259.457,74.231L261.524,74.231C261.693,74.231 261.815,74.269 261.891,74.344C261.966,74.42 262.004,74.542 262.004,74.711L262.004,78.831C262.004,79 261.966,79.122 261.891,79.197C261.815,79.273 261.693,79.311 261.524,79.311Z" style="fill-rule:nonzero;"/>
            <path d="M270.297,79.311L264.111,79.311C263.942,79.311 263.82,79.273 263.744,79.197C263.669,79.122 263.631,79 263.631,78.831L263.631,70.191C263.631,70.022 263.669,69.9 263.744,69.824C263.82,69.749 263.942,69.711 264.111,69.711L270.297,69.711C270.466,69.711 270.589,69.749 270.664,69.824C270.74,69.9 270.777,70.022 270.777,70.191L270.777,71.751C270.777,71.92 270.74,72.042 270.664,72.117C270.589,72.193 270.466,72.231 270.297,72.231L266.617,72.231L266.617,73.257L269.217,73.257C269.386,73.257 269.509,73.295 269.584,73.371C269.66,73.446 269.697,73.569 269.697,73.737L269.697,75.164C269.697,75.333 269.66,75.455 269.584,75.531C269.509,75.606 269.386,75.644 269.217,75.644L266.617,75.644L266.617,76.791L270.297,76.791C270.466,76.791 270.589,76.829 270.664,76.904C270.74,76.98 270.777,77.102 270.777,77.271L270.777,78.831C270.777,79 270.74,79.122 270.664,79.197C270.589,79.273 270.466,79.311 270.297,79.311Z" style="fill-rule:nonzero;"/>
        </g>
    </g>
</svg>
